<?xml version="1.0" standalone="no"?>
<!DOCTYPE svg PUBLIC "-//W3C//DTD SVG 20010904//EN"
 "http://www.w3.org/TR/2001/REC-SVG-20010904/DTD/svg10.dtd">
<svg version="1.0" xmlns="http://www.w3.org/2000/svg"
 width="175.000000pt" height="175.000000pt" viewBox="0 0 175.000000 175.000000"
 preserveAspectRatio="xMidYMid meet">
<metadata>
Created by potrace 1.14, written by Peter Selinger 2001-2017
</metadata>
<g transform="translate(0.000000,175.000000) scale(0.100000,-0.100000)"
fill="#000000" stroke="none">
<path d="M0 875 l0 -875 875 0 875 0 0 875 0 875 -875 0 -875 0 0 -875z m832
83 c3 -125 4 -133 23 -133 16 0 20 -7 20 -30 0 -28 -3 -30 -42 -33 -66 -5 -73
13 -73 185 l0 143 35 0 34 0 3 -132z m-572 87 l0 -35 -65 0 c-62 0 -65 -1 -65
-24 0 -21 6 -24 55 -31 53 -6 55 -8 55 -36 0 -29 -1 -29 -55 -29 -54 0 -55 0
-55 -30 l0 -30 65 0 65 0 0 -35 0 -35 -100 0 -100 0 0 160 0 160 100 0 100 0
0 -35z m1170 -125 l0 -160 -35 0 -35 0 0 160 0 160 35 0 35 0 0 -160z m270
131 c0 -28 -3 -30 -42 -33 l-43 -3 -3 -127 -3 -128 -32 0 -32 0 0 127 0 128
-42 3 c-40 3 -43 5 -43 33 l0 29 120 0 120 0 0 -29z m-1336 -94 l18 -32 16 33
c14 28 21 32 54 32 l37 0 -34 -57 c-30 -50 -33 -60 -22 -78 7 -11 23 -37 36
-57 l23 -38 -36 0 c-30 0 -40 6 -56 32 l-19 32 -18 -32 c-15 -27 -24 -32 -56
-32 l-38 0 36 55 c35 55 35 56 19 88 -9 18 -25 44 -36 60 l-19 27 38 0 c32 0
41 -5 57 -33z m206 23 c0 -7 6 -7 19 0 37 19 85 12 113 -17 71 -74 33 -203
-60 -203 -21 0 -43 5 -50 12 -9 9 -12 -2 -12 -50 l0 -62 -35 0 -35 0 0 165 0
165 30 0 c17 0 30 -5 30 -10z m491 0 c26 -15 49 -62 49 -105 0 -43 -23 -90
-49 -105 -34 -18 -106 -12 -134 11 -54 42 -54 146 0 189 28 22 100 27 134 10z
m145 -62 c17 -73 17 -73 30 -43 7 17 16 49 20 73 6 40 8 42 40 42 19 0 34 -3
34 -6 0 -20 -83 -282 -95 -301 -16 -24 -51 -37 -82 -31 -12 2 -19 14 -21 36
-3 29 -1 32 23 32 14 0 28 7 32 16 3 8 -13 69 -35 135 l-41 119 38 0 39 0 18
-72z"/>
<path d="M598 919 c-12 -6 -18 -22 -18 -45 0 -27 5 -37 26 -46 23 -11 29 -10
45 11 24 30 24 46 -1 71 -23 23 -28 24 -52 9z"/>
<path d="M972 918 c-37 -45 0 -113 48 -88 27 15 28 75 1 90 -26 13 -36 13 -49
-2z"/>
</g>
</svg>
